<svg viewBox="0 0 1024 1024" xmlns="http://www.w3.org/2000/svg"><path d="M687.456 295.84c-8.384 0-16.448 1.408-23.872 4.128v-3.712a71.744 71.744 0 0 0-98.24-66.464A71.744 71.744 0 0 0 496.32 177.6a71.776 71.776 0 0 0-68.928 52.128 71.744 71.744 0 0 0-98.208 66.496v206.144l-21.952-21.952c-13.44-13.44-31.68-20.96-50.688-20.896a71.424 71.424 0 0 0-71.552 71.584 71.36 71.36 0 0 0 20 49.76l130.304 158.592 0.736 0.896 0.16 0.16 0.896 0.896c3.872 3.712 7.616 7.68 11.52 11.776 12 12.64 24.448 25.696 42.08 36.064 20.288 11.84 43.552 17.696 71.2 17.696h118.24c47.936 0 93.12-19.84 127.104-55.84a188.032 188.032 0 0 0 37.76-58.784 186.464 186.464 0 0 0 13.792-70.528v-254.4a71.52 71.52 0 0 0-71.456-71.648z m23.872 325.952a141.76 141.76 0 0 1-38.592 96.576c-24.96 26.336-57.696 40.864-92.384 40.864h-118.208c-41.664 0-57.248-16.32-78.72-38.848-3.808-3.968-7.68-8.064-11.872-12.16l-130.24-158.496c-0.512-0.64-1.024-1.184-1.568-1.728a23.68 23.68 0 0 1-6.912-16.864 23.68 23.68 0 0 1 23.776-23.808c6.4 0 12.416 2.464 16.896 6.944l62.688 62.688 0.768 0.736c0.16 0.128 5.888 4.192 12.192 3.456 4.096-0.48 7.616-2.72 9.792-6.24V296.32c0-13.184 10.752-23.904 23.872-23.904s23.872 10.72 23.872 23.872v192.96a23.872 23.872 0 0 0 47.776 0v-240c0-13.12 10.752-23.872 23.872-23.872 13.152 0 23.904 10.784 23.904 23.872v240a23.872 23.872 0 1 0 47.744 0V296.32a23.904 23.904 0 0 1 47.744 0v204.48a23.904 23.904 0 0 0 47.808 0v-133.312c0-13.12 10.72-23.872 23.872-23.872 13.12 0 23.84 10.72 23.84 23.872v254.336h-0.416z" fill="#000"/></svg>
