<svg viewBox="0 0 1063 1024" xmlns="http://www.w3.org/2000/svg"><path d="M695.729231 541.538462h-152.103385a5.671385 5.671385 0 0 0-4.292923 1.96923 4.135385 4.135385 0 0 0-0.669538 4.332308l24.024615 56.241231 80.974769 190.267077-38.518154 15.438769-76.130461-178.412308-30.129231-70.577231a5.513846 5.513846 0 0 0-4.332308-3.308307 6.222769 6.222769 0 0 0-5.238153 1.732923l-58.013539 57.895384-39.542154 39.384616V246.311385l303.970462 295.227077zM334.769231 183.532308v557.764923c0 7.798154 5.12 14.651077 12.603077 16.896 7.758769 2.284308 16.147692 0.157538 21.897846-5.513846l101.848615-101.691077c1.772308-1.732923 5.159385-1.220923 6.144 0.905846l88.221539 206.729846c2.638769 6.065231 10.830769 9.294769 18.195692 7.168l112.088615-45.213538c7.404308-2.126769 11.342769-8.900923 8.743385-14.966154l-86.449231-213.188923c-0.787692-1.890462 0.905846-3.899077 3.387077-3.899077h155.529846a18.983385 18.983385 0 0 0 16.541539-9.688616 14.454154 14.454154 0 0 0-2.56-17.408L381.558154 163.761231A27.569231 27.569231 0 0 0 334.769231 183.532308z" fill="#000"/></svg>
